{
  "accessors": [
    {
      "bufferView": 2,
      "componentType": 5126,
      "count": 34866,
      "max": [
        14.228731155395508,
        5.5282988548278809,
        14.113106727600098
      ],
      "min": [
        -7.2306041717529297,
        -21.831005096435547,
        -6.5317587852478027
      ],
      "type": "VEC3"
    },
    {
      "bufferView": 2,
      "byteOffset": 418392,
      "componentType": 5126,
      "count": 34866,
      "max": [
        0.99133598804473877,
        0.9996151328086853,
        0.99287378787994385
      ],
      "min": [
        -0.99999547004699707,
        -0.99949914216995239,
        -0.99999088048934937
      ],
      "type": "VEC3"
    },
    {
      "bufferView": 3,
      "componentType": 5126,
      "count": 34866,
      "max": [
        0.99729061126708984,
        0.99983721971511841,
        0.99989795684814453,
        -1
      ],
      "min": [
        -0.9999622106552124,
        -0.99994367361068726,
        -0.99668139219284058,
        -1
      ],
      "type": "VEC4"
    },
    {
      "bufferView": 3,
      "byteOffset": 557856,
      "componentType": 5126,
      "count": 34866,
      "max": [
        0.75294119119644165,
        0.75294119119644165,
        0.75294119119644165,
        1
      ],
      "min": [
        0.75294119119644165,
        0.75294119119644165,
        0.75294119119644165,
        1
      ],
      "type": "VEC4"
    },
    {
      "bufferView": 1,
      "componentType": 5126,
      "count": 34866,
      "max": [
        0.99877899885177612,
        0.99875199794769287
      ],
      "min": [
        0.0012209999840706587,
        0.001247999956831336
      ],
      "type": "VEC2"
    },
    {
      "bufferView": 0,
      "componentType": 5125,
      "count": 179667,
      "max": [
        34865
      ],
      "min": [
        0
      ],
      "type": "SCALAR"
    }
  ],
  "asset": {
    "generator": "Sketchfab (OSG glTF plugin)",
    "version": "2.0"
  },
  "bufferViews": [
    {
      "buffer": 0,
      "byteLength": 718668,
      "byteOffset": 0,
      "name": "floatBufferViews",
      "target": 34963
    },
    {
      "buffer": 0,
      "byteLength": 278928,
      "byteOffset": 718668,
      "byteStride": 8,
      "name": "floatBufferViews",
      "target": 34962
    },
    {
      "buffer": 0,
      "byteLength": 836784,
      "byteOffset": 997596,
      "byteStride": 12,
      "name": "floatBufferViews",
      "target": 34962
    },
    {
      "buffer": 0,
      "byteLength": 1115712,
      "byteOffset": 1834380,
      "byteStride": 16,
      "name": "floatBufferViews",
      "target": 34962
    }
  ],
  "buffers": [
    {
      "byteLength": 2950092,
      "uri": "scene.bin"
    }
  ],
  "images": [
    {
      "uri": "textures/material_0_baseColor.jpeg"
    }
  ],
  "materials": [
    {
      "doubleSided": true,
      "emissiveFactor": [
        0,
        0,
        0
      ],
      "name": "material_0",
      "pbrMetallicRoughness": {
        "baseColorFactor": [
          1,
          1,
          1,
          1
        ],
        "baseColorTexture": {
          "index": 0,
          "texCoord": 0
        },
        "metallicFactor": 0,
        "roughnessFactor": 0.56512004570000007
      }
    }
  ],
  "meshes": [
    {
      "primitives": [
        {
          "attributes": {
            "COLOR_0": 3,
            "NORMAL": 1,
            "POSITION": 0,
            "TANGENT": 2,
            "TEXCOORD_0": 4
          },
          "indices": 5,
          "material": 0,
          "mode": 4
        }
      ]
    }
  ],
  "nodes": [
    {
      "children": [
        1
      ],
      "name": "RootNode (gltf orientation matrix)",
      "rotation": [
        -0.70710678118654746,
        -0,
        -0,
        0.70710678118654757
      ]
    },
    {
      "children": [
        2
      ],
      "matrix": [
        0,
        1,
        0,
        0,
        0,
        0,
        1,
        0,
        1,
        0,
        0,
        0,
        -0.2915952205657959,
        -11.650419235229492,
        11.942014694213867,
        1
      ],
      "name": "RootNode (model correction matrix)"
    },
    {
      "children": [
        3
      ],
      "name": "mesh.obj.cleaner.materialmerger.gles"
    },
    {
      "children": [
        4
      ],
      "name": "Geode"
    },
    {
      "mesh": 0,
      "name": ""
    }
  ],
  "samplers": [
    {
      "magFilter": 9729,
      "minFilter": 9987,
      "wrapS": 10497,
      "wrapT": 10497
    }
  ],
  "scene": 0,
  "scenes": [
    {
      "name": "OSG_Scene",
      "nodes": [
        0
      ]
    }
  ],
  "textures": [
    {
      "sampler": 0,
      "source": 0
    }
  ]
}

